<?xml version="1.0" encoding="iso-8859-1"?>
<!-- Uploaded to: SVG Repo, www.svgrepo.com, Generator: SVG Repo Mixer Tools -->
<svg fill="#000000" height="800px" width="800px" version="1.1" id="Layer_1" xmlns="http://www.w3.org/2000/svg" xmlns:xlink="http://www.w3.org/1999/xlink" 
	 viewBox="0 0 238.805 238.805" xml:space="preserve">
<g>
	<g>
		<g>
			<path d="M36.85,147.101c-1.978-1.138-4.487-0.458-5.625,1.508l-8.098,14.025c-0.734,1.275-0.734,2.843,0,4.117
				c0.736,1.275,2.095,2.059,3.566,2.059h0.273c1.89,0,3.386-1.271,3.84-3.008l7.551-13.076
				C39.493,150.756,38.82,148.239,36.85,147.101z"/>
			<path d="M64.022,160.575H47.553c-2.274,0-4.117,1.842-4.117,4.117c0,2.275,1.844,4.117,4.117,4.117h16.469
				c2.274,0,4.117-1.842,4.117-4.117C68.139,162.417,66.296,160.575,64.022,160.575z"/>
			<path d="M138.134,168.81c2.274,0,4.117-1.842,4.117-4.117s-1.844-4.117-4.117-4.117h-16.469c-2.274,0-4.117,1.842-4.117,4.117
				s1.844,4.117,4.117,4.117H138.134z"/>
			<path d="M98.609,40.132c0.647,0.374,1.357,0.551,2.055,0.551c1.423,0,2.806-0.736,3.571-2.059l8.235-14.262
				c1.136-1.97,0.462-4.487-1.508-5.625c-1.972-1.138-4.491-0.466-5.625,1.508l-8.235,14.262
				C95.966,36.477,96.639,38.994,98.609,40.132z"/>
			<path d="M124.069,20.438c0.764,1.323,2.147,2.059,3.571,2.059c0.697,0,1.407-0.177,2.055-0.551
				c1.97-1.138,2.644-3.655,1.508-5.625l-8.235-14.262C122.231,0.784,120.874,0,119.405,0c-0.002,0-0.002,0-0.002,0
				c-1.469,0-2.829,0.784-3.564,2.055l-0.205,0.354c-0.985,1.701-0.541,3.679,0.868,4.921L124.069,20.438z"/>
			<path d="M201.751,150.861c0.697,0,1.407-0.177,2.055-0.551c1.97-1.138,2.644-3.655,1.508-5.625l-8.235-14.262
				c-1.138-1.974-3.659-2.65-5.625-1.508c-1.97,1.138-2.644,3.655-1.508,5.625l8.235,14.262
				C198.944,150.125,200.328,150.861,201.751,150.861z"/>
			<path d="M164.695,86.68c0.697,0,1.407-0.177,2.055-0.551c1.97-1.138,2.644-3.655,1.508-5.625l-8.235-14.262
				c-1.14-1.974-3.663-2.65-5.625-1.508c-1.97,1.138-2.644,3.655-1.508,5.625l8.235,14.262
				C161.889,85.945,163.272,86.68,164.695,86.68z"/>
			<path d="M63.608,104.863c1.423,0,2.806-0.736,3.571-2.059l8.235-14.262c1.136-1.97,0.462-4.487-1.508-5.625
				c-1.968-1.138-4.489-0.466-5.625,1.508l-8.235,14.262c-1.136,1.97-0.462,4.487,1.508,5.625
				C62.201,104.686,62.911,104.863,63.608,104.863z"/>
			<path d="M215.623,162.541c-0.891-1.568-2.64-2.3-4.298-1.966h-15.549c-2.274,0-4.117,1.842-4.117,4.117
				c0,2.275,1.844,4.117,4.117,4.117h16.333c1.466,0,2.821-0.78,3.557-2.043c0.738-1.266,0.748-2.831,0.026-4.105L215.623,162.541z"
				/>
			<path d="M214.099,37.056c-9.941,0-18.257,7.085-20.17,16.469h-45.124c1.457-1.267,1.926-3.375,0.925-5.11l-8.235-14.266
				c-1.14-1.966-3.655-2.65-5.625-1.508c-1.968,1.138-2.644,3.655-1.508,5.625l8.235,14.266c0.225,0.389,0.515,0.709,0.833,0.993
				H94.366c-0.238-1.095-0.886-2.093-1.933-2.698c-1.97-1.138-4.487-0.466-5.625,1.508l-0.687,1.191H44.873
				c-1.913-9.385-10.229-16.469-20.17-16.469c-11.351,0-20.587,9.236-20.587,20.587s9.236,20.587,20.587,20.587
				c9.941,0,18.257-7.085,20.17-16.469h36.493l-2.793,4.837c-1.136,1.97-0.462,4.487,1.508,5.625
				c0.647,0.374,1.357,0.551,2.055,0.551c1.423,0,2.806-0.736,3.571-2.059l5.17-8.954h103.052c0.85,4.172,2.989,7.863,5.951,10.705
				l-18.314,31.089l-3.014-5.221c-1.142-1.974-3.659-2.65-5.625-1.508c-1.97,1.138-2.644,3.655-1.508,5.625l5.345,9.257
				l-51.227,86.962c-1.95-0.615-3.984-1.038-6.135-1.038c-2.523,0-4.914,0.52-7.15,1.354L94.477,168.81h6.601
				c2.274,0,4.117-1.842,4.117-4.117s-1.844-4.117-4.117-4.117H89.626L38.428,73.657l-7.097,4.182l21.623,36.708
				c-1.288,0.118-2.507,0.764-3.202,1.968l-8.235,14.266c-1.136,1.97-0.46,4.487,1.508,5.625c0.649,0.374,1.357,0.551,2.055,0.551
				c1.423,0,2.806-0.74,3.571-2.059l8.063-13.968l24.492,41.58c-0.413,0.642-0.714,1.362-0.714,2.183
				c0,2.276,1.844,4.117,4.117,4.117h0.308l20.337,34.525c-3.946,3.754-6.439,9.02-6.439,14.883
				c0,11.351,9.236,20.587,20.587,20.587s20.587-9.236,20.587-20.587c0-6.239-2.849-11.771-7.248-15.549l21.993-37.334
				c0.319,1.958,1.942,3.476,3.988,3.476h16.469c2.274,0,4.117-1.842,4.117-4.117s-1.844-4.117-4.117-4.117h-16.469
				c-0.477,0-0.918,0.122-1.344,0.271l24.86-42.203c0.322,0.079,0.653,0.127,0.987,0.127c0.697,0,1.407-0.177,2.055-0.551
				c1.97-1.138,2.644-3.655,1.508-5.625l-0.488-0.845l20.561-34.903c2.261,0.856,4.684,1.383,7.241,1.383
				c11.351,0,20.587-9.236,20.587-20.587S225.449,37.056,214.099,37.056z M24.703,69.994c-6.811,0-12.352-5.541-12.352-12.352
				c0-6.811,5.541-12.352,12.352-12.352c6.811,0,12.352,5.541,12.352,12.352C37.055,64.453,31.514,69.994,24.703,69.994z
				 M119.401,230.569c-6.811,0-12.352-5.541-12.352-12.352c0-6.811,5.541-12.352,12.352-12.352c6.811,0,12.352,5.541,12.352,12.352
				C131.753,225.028,126.212,230.569,119.401,230.569z M214.099,69.994c-6.811,0-12.352-5.541-12.352-12.352
				c0-6.811,5.541-12.352,12.352-12.352c6.811,0,12.352,5.541,12.352,12.352C226.451,64.453,220.91,69.994,214.099,69.994z"/>
		</g>
	</g>
</g>
</svg>